<svg xmlns="http://www.w3.org/2000/svg" width="512" height="512" style=""><rect id="backgroundrect" width="100%" height="100%" x="0" y="0" fill="none" stroke="none"/><!--! Font Awesome Pro 6.1.1 by @fontawesome - https://fontawesome.com License - https://fontawesome.com/license (Commercial License) Copyright 2022 Fonticons, Inc. --><g class="currentLayer" style=""><title>Layer 1</title><path d="M0,16.00000548750537 C0,7.162502456516076 7.460939106892791,0 16.666670256235207,0 C25.87240140557762,0 33.333340512470414,7.162502456516076 33.333340512470414,16.00000548750537 C33.333340512470414,24.837508518494662 25.87240140557762,32.00001097501074 16.666670256235207,32.00001097501074 C7.460939106892791,32.00001097501074 0,24.837508518494662 0,16.00000548750537 zM24.205734379954098,13.237504540053273 C24.915369949457865,12.556254306405583 24.915369949457865,11.443753924852475 24.205734379954098,10.762503691204785 C23.496098810450334,10.081253457557096 22.337244394196485,10.081253457557096 21.627608824692718,10.762503691204785 L14.583336474205804,17.525006010533225 L11.705731687777694,14.762505063081127 C10.99609611827393,14.081254829433439 9.837241702020076,14.081254829433439 9.127606132516311,14.762505063081127 C8.417970563012549,15.443755296728815 8.417970563012549,16.55625567828192 9.127606132516311,17.237505911929613 L13.294273696575114,21.237507283805957 C14.003909266078878,21.918757517453646 15.162763682332733,21.918757517453646 15.872399251836496,21.237507283805957 L24.205734379954098,13.237504540053273 z" id="svg_1" class="selected" fill="#ffffff" fill-opacity="1"/></g></svg>