<svg xmlns="http://www.w3.org/2000/svg" width="512" height="512" style=""><rect id="backgroundrect" width="100%" height="100%" x="0" y="0" fill="none" stroke="none"/><!--! Font Awesome Pro 6.1.1 by @fontawesome - https://fontawesome.com License - https://fontawesome.com/license (Commercial License) Copyright 2022 Fonticons, Inc. --><g class="currentLayer" style=""><title>Layer 1</title><path d="M0,33.000002220820306 C0,14.77265724416409 15.667970116624707,0 35.00000305284402,0 C54.332035989063336,0 70.00000610568804,14.77265724416409 70.00000610568804,33.000002220820306 C70.00000610568804,51.22734719747652 54.332035989063336,66.00000444164061 35.00000305284402,66.00000444164061 C15.667970116624707,66.00000444164061 0,51.22734719747652 0,33.000002220820306 zM50.83203568377893,27.3023455873818 C52.32227018876331,25.89726736782344 52.32227018876331,23.602735963407024 50.83203568377893,22.19765774384866 C49.34180117879456,20.792579524290296 46.908207216526506,20.792579524290296 45.41797271154213,22.19765774384866 L30.62500267123852,36.14531493249224 L24.582033394145917,30.447658299053735 C23.091798889161545,29.042580079495373 20.658204926893482,29.042580079495373 19.167970421909107,30.447658299053735 C17.67773591692474,31.852736518612097 17.67773591692474,34.14726792302851 19.167970421909107,35.55234614258688 L27.917971185120116,43.802346697791954 C29.408205690104488,45.207424917350316 31.84179965237255,45.207424917350316 33.33203415735692,43.802346697791954 L50.83203568377893,27.3023455873818 z" id="svg_1" class="selected" fill="#ffffff" fill-opacity="1"/></g></svg>